<?xml version="1.0" standalone="no"?>
<!DOCTYPE svg PUBLIC "-//W3C//DTD SVG 20010904//EN"
 "http://www.w3.org/TR/2001/REC-SVG-20010904/DTD/svg10.dtd">
<svg version="1.0" xmlns="http://www.w3.org/2000/svg"
 width="512.000000pt" height="512.000000pt" viewBox="0 0 512.000000 512.000000"
 preserveAspectRatio="xMidYMid meet">

<g transform="translate(0.000000,512.000000) scale(0.100000,-0.100000)"
fill="#000000" stroke="none">
<path d="M2552 5071 c-17 -28 -32 -57 -32 -65 0 -8 -4 -17 -10 -21 -5 -3 -7
-12 -4 -20 3 -7 0 -24 -7 -37 -7 -13 -14 -52 -14 -88 0 -36 -5 -72 -10 -80 -5
-8 -11 -49 -12 -90 -2 -41 -4 -88 -6 -105 -6 -60 -18 -172 -27 -250 -12 -102
-25 -244 -51 -520 -31 -337 -31 -337 -70 -395 -19 -27 -39 -50 -44 -50 -18 0
-83 93 -98 140 -8 25 -20 72 -26 105 -27 146 -143 719 -171 840 -13 58 -20 96
-27 148 -3 20 -9 40 -14 43 -5 3 -9 20 -9 39 0 19 -5 37 -11 41 -6 3 -9 15 -6
25 3 11 2 19 -3 19 -4 0 -13 14 -20 30 -7 17 -26 41 -41 55 -16 13 -29 27 -29
32 0 11 -123 11 -131 0 -3 -4 -21 -16 -40 -25 -29 -15 -36 -25 -46 -72 -7 -30
-10 -70 -7 -88 4 -18 8 -56 10 -85 2 -28 8 -79 13 -112 9 -56 14 -89 40 -275
6 -41 15 -104 21 -140 6 -36 17 -110 25 -165 26 -170 46 -294 74 -452 23 -126
41 -330 34 -383 -18 -149 -62 -308 -108 -400 -72 -142 -232 -173 -319 -62 -12
15 -47 69 -79 121 -115 188 -244 342 -356 422 -66 47 -177 97 -256 115 -38 8
-87 20 -107 26 -20 6 -45 7 -55 3 -10 -5 -27 -9 -38 -11 -10 -1 -21 -7 -23
-13 -2 -6 -12 -11 -23 -11 -10 0 -19 -4 -19 -10 0 -5 -9 -10 -20 -10 -11 0
-20 -4 -20 -10 0 -5 -7 -10 -16 -10 -12 0 -14 -7 -9 -32 4 -18 11 -39 16 -48
4 -8 16 -32 25 -53 17 -39 74 -98 207 -213 119 -103 239 -249 294 -359 11 -22
39 -91 62 -153 98 -267 223 -460 505 -782 148 -168 167 -193 244 -320 105
-175 107 -183 105 -390 -2 -96 -4 -321 -6 -500 -2 -179 -7 -335 -11 -347 l-7
-23 695 0 696 0 0 31 c0 17 -4 39 -10 49 -5 10 -12 69 -14 132 -3 62 -11 190
-18 283 -7 94 -12 258 -13 365 0 283 1 286 197 660 122 232 158 348 178 575
16 183 58 423 90 515 5 14 23 72 41 130 55 181 155 424 289 705 39 83 81 170
92 195 56 123 81 175 88 180 4 3 7 12 7 20 0 23 42 110 53 110 16 0 11 57 -5
64 -8 3 -15 15 -15 26 0 11 -4 28 -9 38 -5 9 -14 31 -21 48 -10 28 -16 31 -51
31 -21 0 -39 -4 -39 -9 0 -5 -6 -8 -12 -6 -30 5 -58 -16 -97 -73 -22 -33 -41
-64 -41 -69 0 -6 -4 -10 -10 -10 -5 0 -10 -6 -10 -14 0 -8 -3 -16 -7 -18 -5
-1 -23 -32 -40 -68 -18 -36 -58 -112 -89 -170 -30 -58 -81 -152 -111 -210
-162 -305 -171 -319 -228 -347 -29 -14 -60 -23 -68 -20 -18 7 -37 66 -37 112
1 36 17 123 64 350 19 94 47 235 61 315 37 212 58 314 66 320 4 3 7 25 7 50 0
25 5 72 11 105 7 33 14 84 16 114 2 29 9 58 14 65 17 21 4 128 -21 176 -22 43
-25 45 -77 50 -38 4 -58 2 -67 -8 -8 -7 -23 -11 -33 -7 -14 4 -21 0 -27 -17
-4 -13 -14 -30 -23 -38 -19 -17 -53 -85 -57 -115 -11 -68 -17 -96 -25 -101 -5
-3 -9 -15 -9 -26 0 -12 -4 -35 -10 -52 -5 -17 -30 -114 -55 -216 -55 -220
-158 -607 -186 -704 -16 -54 -29 -76 -62 -107 -23 -21 -49 -39 -57 -39 -22 0
-61 79 -64 131 -5 60 10 399 23 534 6 61 20 202 32 315 11 113 22 243 25 290
2 47 7 92 10 100 11 26 13 253 3 300 -17 74 -27 80 -143 80 l-101 0 -33 -49z
m-275 -2687 c31 -15 81 -44 111 -66 31 -21 59 -38 64 -38 5 0 51 25 102 55
154 91 267 105 381 50 99 -48 176 -161 175 -257 -1 -94 -82 -224 -247 -398
-143 -151 -392 -395 -403 -395 -15 0 -406 381 -487 474 -81 93 -132 173 -151
237 -59 201 102 384 326 369 50 -3 90 -13 129 -31z"/>
</g>
</svg>
